<mxfile host="app.diagrams.net" modified="2023-11-03T06:38:34.335Z" agent="Mozilla/5.0 (Windows NT 10.0; Win64; x64; rv:109.0) Gecko/20100101 Firefox/119.0" version="22.0.8" etag="bA2tHxEOOkg9hULjtnB_" type="github">
  <diagram name="Sivu-1" id="jNaYSMbeP0Z_qt4pjJCi">
    <mxGraphModel>
      <root>
        <mxCell id="0" />
        <mxCell id="1" parent="0" />
      </root>
    </mxGraphModel>
  </diagram>
</mxfile>
